# xmcd CD database file
#
# Track frame offsets:
#	150
#	20189
#	34415
#	53248
#	78068
#	94795
#	109473
#	127372
#	140238
#	158458
#	177434
#
# Disc length: 2673 seconds
#
# Revision: 0
# Processed by: cddbd v1.5.2PL0 Copyright (c) Steve Scherf et al.
# Submitted via: CDex 1.70beta2
#
DISCID=9e0a6f0b
DTITLE=Angela Desveaux - Wandering Eyes
DYEAR=2006
DGENRE=Country
TTITLE0=Heartbeat
TTITLE1=Familiar Times
TTITLE2=Wandering Eyes
TTITLE3=If Only
TTITLE4=Bury Me Deeper
TTITLE5=Sick Of Fools
TTITLE6=Make Up Your Mind
TTITLE7=All The Talk
TTITLE8=Feel Alright
TTITLE9=Good Intentions
TTITLE10=If Ever I Loved (bonus)
EXTD=YEAR: 2006
EXTT0=
EXTT1=
EXTT2=
EXTT3=
EXTT4=
EXTT5=
EXTT6=
EXTT7=
EXTT8=
EXTT9=
EXTT10=
PLAYORDER=
